<svg width="32" height="40" xmlns="http://www.w3.org/2000/svg">

 <g>
  <title>background</title>
  <rect fill="none" id="canvas_background" height="42" width="34" y="-1" x="-1"/>
 </g>
 <g>
  <title>Layer 1</title>
  <path stroke="null" id="svg_3" d="m22.907012,7.035028c-1.179174,-0.571181 -2.599407,-0.080749 -3.17415,1.1008c-0.572368,1.181549 -0.078374,2.601782 1.1008,3.17415c3.699018,1.800228 6.252113,5.587121 6.249738,9.97607c-0.011875,6.120303 -4.963691,11.072119 -11.082807,11.082807c-6.120303,-0.011875 -11.072119,-4.963692 -11.083994,-11.082807c-0.002375,-4.391323 2.551907,-8.181779 6.254488,-9.978445c1.181548,-0.572368 1.67198,-1.992602 1.1008,-3.17415c-0.572368,-1.179173 -1.990226,-1.673167 -3.171775,-1.1008c-5.286687,2.559032 -8.932269,7.983469 -8.934644,14.253394c0.002375,8.744647 7.088104,15.831563 15.835125,15.833938c8.745834,-0.002375 15.832751,-7.089291 15.833938,-15.833938c-0.002375,-6.267551 -3.643207,-11.688425 -8.92752,-14.251019zm-6.906419,11.677737c1.310985,0 2.373784,-1.061612 2.373784,-2.374972l0,-11.083994c0,-1.312172 -1.0628,-2.373784 -2.373784,-2.373784c-1.313359,0 -2.374972,1.0628 -2.374972,2.373784l0,11.082807c0,1.31336 1.061613,2.37616 2.374972,2.37616z" opacity="0.77" fill-opacity="null" stroke-opacity="null" stroke-width="null" fill="null"/>
 </g>
</svg>